<?xml version="1.0" encoding="utf-8"?>
<!-- Uploaded to: SVG Repo, www.svgrepo.com, Generator: SVG Repo Mixer Tools -->
<svg fill="#000000" width="800px" height="800px" viewBox="0 0 32 32" version="1.1" xmlns="http://www.w3.org/2000/svg">
<title>level-two</title>
<path d="M21.625 16c0 3.314-2.518 6-5.625 6s-5.625-2.686-5.625-6 2.518-6 5.625-6 5.625 2.686 5.625 6v0zM16 1c1.406 4.5 2.813 4.5 2.813 7.5 0 0-1.406 1.5-2.813 1.5s-2.813-1.5-2.813-1.5c0-3 1.406-3 2.813-7.5zM16 31c-1.406-4.5-2.813-4.5-2.813-7.5 0 0 1.406-1.5 2.813-1.5s2.813 1.5 2.813 1.5c0 3.001-1.406 3.001-2.813 7.5z"></path>
</svg>