<?xml version="1.0" encoding="utf-8"?>
<!-- Uploaded to: SVG Repo, www.svgrepo.com, Generator: SVG Repo Mixer Tools -->
<svg fill="#000000" width="800px" height="800px" viewBox="0 0 32 32" version="1.1" xmlns="http://www.w3.org/2000/svg">
<title>level-four</title>
<path d="M24.485 16c-0.016 4.686-3.827 8.473-8.514 8.457-4.664-0.016-8.442-3.793-8.457-8.457-0.016-4.686 3.771-8.498 8.457-8.514s8.498 3.771 8.514 8.457c0 0.019 0 0.038 0 0.056zM1 1c6 3 7.5 1.5 10.5 4.5 0 0 0 3-1.5 4.5s-4.5 1.5-4.5 1.5c-2.998-2.999-1.499-4.5-4.499-10.5v0zM31 31c-6-3-7.5-1.5-10.5-4.5 0 0 0-3 1.5-4.5s4.5-1.5 4.5-1.5c2.999 3 1.499 4.5 4.499 10.5v0zM31 1c-3 6-1.5 7.5-4.5 10.5 0 0-3 0-4.5-1.5s-1.5-4.5-1.5-4.5c3.002-3 4.501-1.5 10.501-4.5v0zM1 31c3-6 1.5-7.5 4.5-10.5 0 0 3 0 4.5 1.5s1.5 4.5 1.5 4.5c-3.001 3.001-4.501 1.5-10.501 4.5v0z"></path>
</svg>