<?xml version="1.0" encoding="utf-8"?>
<!-- Uploaded to: SVG Repo, www.svgrepo.com, Generator: SVG Repo Mixer Tools -->
<svg fill="#000000" width="800px" height="800px" viewBox="0 0 32 32" version="1.1" xmlns="http://www.w3.org/2000/svg">
<title>level-three</title>
<path d="M22.928 20.375c-0.002 3.866-3.106 6.998-6.933 6.995-3.823-0.002-6.922-3.133-6.924-6.995-0.002-3.866 3.097-7.002 6.924-7.005s6.93 3.129 6.933 6.995c0 0.004 0 0.007 0 0.009zM16 2.875c1.732 5.25 3.464 5.25 3.464 8.75 0 0-1.732 1.75-3.464 1.75s-3.464-1.75-3.464-1.75c0.001-3.5 1.733-3.5 3.464-8.75zM31 29.125c-5.366-1.11-6.232 0.406-9.232-1.344 0 0-0.634-2.391 0.232-3.906s3.232-2.156 3.232-2.156c3 1.748 2.134 3.264 5.768 7.405zM1 29.125c3.634-4.14 2.768-5.656 5.768-7.406 0 0 2.366 0.641 3.232 2.156s0.232 3.906 0.232 3.906c-3 1.751-3.866 0.235-9.232 1.344z"></path>
</svg>